<svg xmlns="http://www.w3.org/2000/svg" width="902" height="1159" fill="none"><rect width="455.04" height="453" fill="#E5E5E5" rx="2"/><rect width="426.789" height="71.315" x="474.211" fill="#E5E5E5" rx="2"/><rect width="426.789" height="17.075" x="474.211" y="147.652" fill="#E5E5E5" rx="2"/><rect width="426.789" height="17.075" x="475" y="175" fill="#E5E5E5" rx="2"/><rect width="801" height="17" y="605" fill="#E5E5E5" rx="2"/><rect width="801" height="17" y="633" fill="#E5E5E5" rx="2"/><rect width="801" height="17" y="661" fill="#E5E5E5" rx="2"/><rect width="801" height="17" y="689" fill="#E5E5E5" rx="2"/><rect width="141.254" height="53.235" x="474.211" y="255" fill="#E5E5E5" rx="2"/><rect width="83.744" height="18.08" x="474.211" y="90" fill="#E5E5E5" rx="2"/><rect width="276.939" height="276.939" y="882" fill="#E5E5E5" rx="2"/><rect width="276.939" height="276.939" x="312.031" y="882" fill="#E5E5E5" rx="2"/><rect width="276.939" height="276.939" x="624.061" y="882" fill="#E5E5E5" rx="2"/><rect width="264" height="36" x="1" y="810" fill="#E5E5E5" rx="2"/><rect width="202" height="36" x="1" y="535" fill="#E5E5E5" rx="2"/><rect width="202" height="36" x="228" y="535" fill="#E5E5E5" rx="2"/><rect width="202" height="36" x="455" y="535" fill="#E5E5E5" rx="2"/></svg>