<svg xmlns="http://www.w3.org/2000/svg" width="96" height="32" fill="none" viewBox="0 0 96 32"><rect width="32" height="32" fill="#8E9196" rx="16"/><mask id="bacs0" width="16" height="16" x="8" y="8" mask-type="alpha" maskUnits="userSpaceOnUse"><path fill="#fff" fill-rule="evenodd" d="M8.875 12.25L16 8.5L23.125 12.25V13.75H8.875V12.25ZM16 10.195L19.9075 12.25H12.0925L16 10.195ZM10.75 15.25H12.25V20.5H10.75V15.25ZM15.25 20.5V15.25H16.75V20.5H15.25ZM23.125 23.5V22H8.875V23.5H23.125ZM19.75 15.25H21.25V20.5H19.75V15.25Z" clip-rule="evenodd"/></mask><g mask="url(#bacs0)"><rect width="18" height="18" x="7" y="7" fill="#fff"/></g><mask id="bacs1" width="18" height="12" x="39" y="10" mask-type="alpha" maskUnits="userSpaceOnUse"><path fill="#fff" d="M39 17L53.17 17L49.59 20.59L51 22L57 16L51 10L49.59 11.41L53.17 15L39 15L39 17Z"/></mask><g mask="url(#bacs1)"><rect width="24" height="24" x="60" y="28" fill="#8E9196" transform="rotate(-180 60 28)"/></g><rect width="32" height="32" x="64" fill="#8E9196" rx="16"/><mask id="bacs2" width="16" height="16" x="72" y="8" mask-type="alpha" maskUnits="userSpaceOnUse"><path fill="#fff" fill-rule="evenodd" d="M72.875 12.25L80 8.5L87.125 12.25V13.75H72.875V12.25ZM80 10.195L83.9075 12.25H76.0925L80 10.195ZM74.75 15.25H76.25V20.5H74.75V15.25ZM79.25 20.5V15.25H80.75V20.5H79.25ZM87.125 23.5V22H72.875V23.5H87.125ZM83.75 15.25H85.25V20.5H83.75V15.25Z" clip-rule="evenodd"/></mask><g mask="url(#bacs2)"><rect width="18" height="18" x="71" y="7" fill="#fff"/></g></svg>