<svg xmlns="http://www.w3.org/2000/svg" width="892" height="830" fill="none"><rect width="203" height="204" y="108" fill="#E5E5E5" rx="2"/><rect width="203" height="204" y="339" fill="#E5E5E5" rx="2"/><rect width="203" height="204" y="570" fill="#E5E5E5" rx="2"/><rect width="203" height="204" x="230" y="108" fill="#E5E5E5" rx="2"/><rect width="203" height="204" x="230" y="339" fill="#E5E5E5" rx="2"/><rect width="203" height="204" x="230" y="570" fill="#E5E5E5" rx="2"/><rect width="203" height="204" x="459" y="108" fill="#E5E5E5" rx="2"/><rect width="203" height="204" x="459" y="339" fill="#E5E5E5" rx="2"/><rect width="203" height="204" x="459" y="570" fill="#E5E5E5" rx="2"/><rect width="203" height="204" x="689" y="108" fill="#E5E5E5" rx="2"/><rect width="203" height="204" x="689" y="339" fill="#E5E5E5" rx="2"/><rect width="203" height="204" x="689" y="570" fill="#E5E5E5" rx="2"/><rect width="304" height="71" fill="#E5E5E5" rx="2"/><rect width="261" height="24" x="631" y="47" fill="#E5E5E5" rx="2"/><rect width="25" height="24" x="399" y="806" fill="#E5E5E5" rx="2"/><rect width="25" height="24" x="434" y="806" fill="#E5E5E5" rx="2"/><rect width="25" height="24" x="469" y="806" fill="#E5E5E5" rx="2"/></svg>