<svg xmlns="http://www.w3.org/2000/svg" viewBox="0 0 1544 500">
    <defs>
        <style>
            .cls-1{isolation:isolate;}.cls-14,.cls-17,.cls-19,.cls-2,.cls-20,.cls-21,.cls-22,.cls-4{fill:none;}.cls-2{stroke:#94e0de;}.cls-14,.cls-17,.cls-2,.cls-3,.cls-4,.cls-5{stroke-miterlimit:10;stroke-width:2.45px;}.cls-3,.cls-7{fill:#fff;}.cls-3,.cls-4{stroke:#14aba3;}.cls-18,.cls-5{fill:#d4f2f2;}.cls-5{stroke:#f2fcfa;opacity:0.5;}.cls-6{fill:#7f54b3;}.cls-8{fill:#f2c994;}.cls-9{fill:#ed4642;}.cls-10{fill:#17bcb5;}.cls-11{fill:#df392f;}.cls-12{fill:#16342f;}.cls-13{fill:#15291a;}.cls-14{stroke:#7ccdcd;}.cls-15{fill:#b5e8e8;}.cls-16{fill:#7ccdcd;}.cls-17{stroke:#f2c994;mix-blend-mode:multiply;}.cls-19,.cls-20{stroke:#d4f2f2;}.cls-19,.cls-20,.cls-21,.cls-22{stroke-linecap:round;stroke-linejoin:round;stroke-width:8px;}.cls-20{stroke-dasharray:0.11
            32.4;}.cls-21,.cls-22{stroke:#fff;}.cls-22{stroke-dasharray:0.12 35.99;}
        </style>
    </defs>
    <g class="cls-1">
        <g id="Layer_1" data-name="Layer 1">
            <line class="cls-2" x1="70.8" y1="406.89" x2="1473.2" y2="406.89"/>
            <polyline class="cls-3"
                      points="450.35 369.86 438.55 416.13 435.15 416.13 430.24 427.63 557.18 427.63 553.19 416.13 548.87 416.13 537.07 369.86 728.32 369.86 728.32 87.29 259.11 87.29 259.11 369.86 517.61 369.86"/>
            <circle class="cls-4" cx="493.71" cy="349.28" r="7.77"/>
            <rect class="cls-5" x="378.65" y="-6.51" width="231.45" height="443.06"
                  transform="translate(709.39 -279.35) rotate(90)"/>
            <path class="cls-6"
                  d="M395.41,154.11h181a20.71,20.71,0,0,1,20.72,20.73v69.08a20.71,20.71,0,0,1-20.72,20.72h-64.9l8.91,21.81-39.18-21.81H395.5a20.71,20.71,0,0,1-20.72-20.72V174.84a20.64,20.64,0,0,1,20.63-20.73Z"/>
            <path class="cls-7"
                  d="M387.44,173a7.25,7.25,0,0,1,5.69-2.8q6.92-.54,7.86,6.51c2.8,18.89,5.88,34.88,9.13,48L429.91,187q2.71-5.14,6.78-5.42c4-.27,6.42,2.26,7.41,7.59a168.51,168.51,0,0,0,8.59,30.91q3.53-34.44,11.93-49.71a6.93,6.93,0,0,1,6-4,7.9,7.9,0,0,1,5.7,1.81,7.1,7.1,0,0,1,2.8,5.15,7.8,7.8,0,0,1-.91,4.34c-3.52,6.51-6.41,17.44-8.76,32.63-2.26,14.73-3.07,26.21-2.53,34.43a10.65,10.65,0,0,1-1.09,6A5.82,5.82,0,0,1,461,254c-2.35.18-4.79-.91-7.14-3.35-8.4-8.58-15.09-21.41-20-38.5q-8.81,17.35-13,26c-5.34,10.21-9.85,15.46-13.65,15.73-2.44.18-4.52-1.9-6.33-6.24Q394,229.89,386,179.06a7.7,7.7,0,0,1,1.45-6.06Zm194.22,14.19a20.79,20.79,0,0,0-14.46-10.48,23.24,23.24,0,0,0-4.88-.55c-8.68,0-15.73,4.52-21.24,13.56A47.89,47.89,0,0,0,534,215.21q0,10.44,4.34,17.89a20.79,20.79,0,0,0,14.46,10.48,23.17,23.17,0,0,0,4.88.55c8.77,0,15.81-4.52,21.24-13.56A48.43,48.43,0,0,0,586,205,33.36,33.36,0,0,0,581.66,187.19Zm-11.39,25c-1.26,6-3.52,10.4-6.87,13.38-2.62,2.35-5.06,3.34-7.32,2.89s-4-2.35-5.33-5.87a23.07,23.07,0,0,1-1.63-8.23,30.77,30.77,0,0,1,.64-6.59A29.2,29.2,0,0,1,554.55,197c3-4.43,6.14-6.23,9.4-5.6,2.16.45,4,2.35,5.33,5.87a23,23,0,0,1,1.62,8.23,31.71,31.71,0,0,1-.63,6.68Zm-45.19-25a21,21,0,0,0-14.46-10.48,23.1,23.1,0,0,0-4.88-.55c-8.67,0-15.72,4.52-21.24,13.56a47.89,47.89,0,0,0-7.05,25.49q0,10.44,4.34,17.89a20.83,20.83,0,0,0,14.46,10.48,23.24,23.24,0,0,0,4.88.55c8.77,0,15.82-4.52,21.24-13.56a48.43,48.43,0,0,0,7-25.58C529.42,197.94,528,192.07,525.08,187.19Zm-11.47,25c-1.27,6-3.53,10.4-6.87,13.38-2.62,2.35-5.06,3.34-7.32,2.89s-4-2.35-5.34-5.87a23,23,0,0,1-1.62-8.23,31.42,31.42,0,0,1,.63-6.59A29.2,29.2,0,0,1,497.88,197c3-4.43,6.15-6.23,9.4-5.6,2.17.45,4,2.35,5.33,5.87a22.85,22.85,0,0,1,1.63,8.23,26.7,26.7,0,0,1-.63,6.68Z"/>
            <polyline class="cls-3"
                      points="1082.61 369.86 1070.82 416.13 1067.42 416.13 1062.51 427.63 1189.45 427.63 1185.46 416.13 1181.14 416.13 1169.34 369.86 1360.58 369.86 1360.58 87.29 891.37 87.29 891.37 369.86 1148.84 369.86"/>
            <circle class="cls-4" cx="1125.98" cy="349.28" r="7.77"/>
            <rect class="cls-5" x="1010.91" y="-6.51" width="231.45" height="443.06"
                  transform="translate(1341.66 -911.62) rotate(90)"/>
            <g id="pf-logo-color-white-1-svg">
                <polygon class="cls-8"
                         points="1067.23 166.57 1010.78 263.47 1061.75 263.47 1092.72 210.32 1067.23 166.57"/>
                <polygon class="cls-9"
                         points="1143.69 210.32 1118.21 166.57 1092.72 210.32 1118.21 254.07 1143.69 210.32"/>
                <polygon class="cls-10"
                         points="1169.18 166.57 1143.69 210.32 1174.66 263.47 1225.64 263.47 1169.18 166.57"/>
                <polygon class="cls-11" points="1092.72 210.32 1061.75 263.47 1092.72 210.32 1092.72 210.32"/>
                <polygon class="cls-11"
                         points="1118.21 254.07 1118.21 254.07 1092.72 210.32 1092.72 210.32 1118.21 254.07"/>
                <polygon class="cls-11"
                         points="1092.72 210.32 1061.75 263.47 1112.73 263.47 1118.21 254.07 1092.72 210.32"/>
                <polygon class="cls-12"
                         points="1118.21 254.07 1143.69 210.32 1143.69 210.32 1118.21 254.07 1118.21 254.07"/>
                <polygon class="cls-12" points="1143.69 210.32 1174.66 263.47 1143.69 210.32 1143.69 210.32"/>
                <polygon class="cls-12"
                         points="1118.21 254.07 1118.21 254.07 1118.21 254.07 1123.68 263.47 1174.66 263.47 1143.69 210.32 1118.21 254.07"/>
                <polygon class="cls-12" points="1118.21 254.07 1112.73 263.47 1118.21 254.07 1118.21 254.07"/>
                <polygon class="cls-12" points="1118.21 254.07 1112.73 263.47 1118.21 254.07 1118.21 254.07"/>
                <polygon class="cls-13" points="1118.21 254.07 1123.68 263.47 1118.21 254.07 1118.21 254.07"/>
                <polygon class="cls-13" points="1118.21 254.07 1123.68 263.47 1118.21 254.07 1118.21 254.07"/>
                <polygon class="cls-13" points="1112.73 263.47 1123.68 263.47 1118.21 254.07 1112.73 263.47"/>
            </g>
            <line class="cls-14" x1="189.21" y1="318.47" x2="193.29" y2="383.94"/>
            <line class="cls-14" x1="162.35" y1="333.34" x2="192.05" y2="364.06"/>
            <line class="cls-14" x1="192.36" y1="369.04" x2="224.16" y2="299.56"/>
            <line class="cls-14" x1="191.95" y1="371.29" x2="218.51" y2="351.84"/>
            <ellipse class="cls-15" cx="240.1" cy="317.96" rx="20.13" ry="29.72"
                     transform="translate(-147.91 227.44) rotate(-39.81)"/>
            <path class="cls-15"
                  d="M167.46,331.05c11.61,17.08-12.63,34.1-27.24,36.66-8.56,1.49-19.26-.41-19.72-10.8-.53-11.76,9.59-24.08,19.41-29.46a24.63,24.63,0,0,1,4.65-2C152.39,323,162.45,323.68,167.46,331.05Z"/>
            <path class="cls-15"
                  d="M149,294.37a46.36,46.36,0,0,0,15.7,23c8.81,6.81,22.1,9.14,31.48,2.19,5.67-4.2,9.37-10.67,11.23-17.48,5.31-19.48-5.46-42.7-26.8-46-9.89-1.54-20.59,2.24-26.88,10C147,274.47,146.16,284.77,149,294.37Z"/>
            <circle class="cls-16" cx="158.58" cy="336.64" r="2.77"/>
            <circle class="cls-16" cx="229.25" cy="303.8" r="2.52"/>
            <circle class="cls-16" cx="187.19" cy="307.57" r="3.07"/>
            <polygon class="cls-8" points="229.69 442.79 163.22 442.79 153.72 386.53 239.18 386.53 229.69 442.79"/>
            <polygon class="cls-8" points="242.92 388.08 149.99 388.08 146.27 371.63 246.64 371.63 242.92 388.08"/>
            <line class="cls-17" x1="238.92" y1="389.01" x2="164.54" y2="389.01"/>
            <path class="cls-15"
                  d="M238.12,356.33a19.56,19.56,0,0,1,1.64,16.34c-4.87,13.61-22.21,8.88-29.66.49a20.07,20.07,0,0,1-5.24-13,13.85,13.85,0,0,1,9.62-13.89C224,343,233.56,348.28,238.12,356.33Z"/>
            <circle class="cls-16" cx="218.25" cy="357.26" r="1.66"/>
            <circle class="cls-10" cx="801.57" cy="233.66" r="110.07" transform="translate(69.55 635.23) rotate(-45)"/>
            <path class="cls-7"
                  d="M801.57,125.87A107.79,107.79,0,1,1,693.78,233.66,107.79,107.79,0,0,1,801.57,125.87m0-4.56A112.34,112.34,0,1,0,881,154.22a111.61,111.61,0,0,0-79.45-32.91Z"/>
            <polygon class="cls-18"
                     points="839.16 181.27 826.43 205.35 839.16 229.44 823 229.44 810.26 205.35 823 181.27 839.16 181.27"/>
            <line class="cls-19" x1="788.83" y1="205.35" x2="788.77" y2="205.35"/>
            <line class="cls-20" x1="756.37" y1="205.35" x2="740.06" y2="205.35"/>
            <line class="cls-19" x1="723.87" y1="205.35" x2="723.81" y2="205.35"/>
            <line class="cls-21" x1="723.67" y1="262.05" x2="723.73" y2="262.05"/>
            <line class="cls-21" x1="750.61" y1="262.05" x2="750.67" y2="262.05"/>
            <line class="cls-19" x1="852.47" y1="205.35" x2="852.53" y2="205.35"/>
            <line class="cls-19" x1="879.41" y1="205.35" x2="879.47" y2="205.35"/>
            <polygon class="cls-7"
                     points="758.66 286.05 771.39 261.97 758.66 237.88 774.83 237.88 787.56 261.97 774.83 286.05 758.66 286.05"/>
            <line class="cls-21" x1="876.2" y1="262.72" x2="876.15" y2="262.72"/>
            <line class="cls-22" x1="840.15" y1="262.72" x2="822.03" y2="262.72"/>
            <line class="cls-21" x1="804.04" y1="262.72" x2="803.98" y2="262.72"/>
        </g>
    </g>
</svg>