<svg xmlns="http://www.w3.org/2000/svg" xmlns:xlink="http://www.w3.org/1999/xlink" width="15" height="15" version="1.1" viewBox="0 0 15 15"><title>Combined Shape</title><desc>Created with Sketch.</desc><defs><path id="path-1" d="M11.3820189,10.3213587 L14.7803301,13.7196699 C15.0732233,14.0125631 15.0732233,14.4874369 14.7803301,14.7803301 C14.4874369,15.0732233 14.0125631,15.0732233 13.7196699,14.7803301 L10.3213587,11.3820189 C9.23588921,12.2387223 7.86515226,12.75 6.375,12.75 C2.85418472,12.75 0,9.89581528 0,6.375 C0,2.85418472 2.85418472,0 6.375,0 C9.89581528,0 12.75,2.85418472 12.75,6.375 C12.75,7.86515226 12.2387223,9.23588921 11.3820189,10.3213587 Z M9.86981921,9.77380751 C10.7239628,8.89568802 11.25,7.69677529 11.25,6.375 C11.25,3.68261184 9.06738816,1.5 6.375,1.5 C3.68261184,1.5 1.5,3.68261184 1.5,6.375 C1.5,9.06738816 3.68261184,11.25 6.375,11.25 C7.69677529,11.25 8.89568802,10.7239628 9.77380751,9.86981921 C9.788201,9.85258825 9.80348847,9.83585136 9.81966991,9.81966991 C9.83585136,9.80348847 9.85258825,9.788201 9.86981921,9.77380751 Z"/></defs><g id="Page-1" fill="none" fill-rule="evenodd" stroke="none" stroke-width="1"><g id="18-new-file-manager-light" transform="translate(-1831.000000, -28.000000)"><g id="menu-head-footer" transform="translate(-1.000000, 0.000000)"><g id="menu-bar" transform="translate(1.000000, 0.000000)"><g id="search"><g transform="translate(1607.000000, 18.000000) translate(224.000000, 10.000000)"><mask id="mask-2" fill="#fff"><use xlink:href="#path-1"/></mask><use id="Combined-Shape" fill="#8591B0" fill-rule="nonzero" xlink:href="#path-1"/></g></g></g></g></g></g></svg>