<svg xmlns="http://www.w3.org/2000/svg" xmlns:xlink="http://www.w3.org/1999/xlink" width="16" height="20" version="1.1" viewBox="0 0 16 20"><title>paste</title><desc>Created with Sketch.</desc><defs><path id="path-1" d="M12.1666667,2.5 L13,2.5 C14.3807119,2.5 15.5,3.61928813 15.5,5 L15.5,16.6666667 C15.5,18.0473785 14.3807119,19.1666667 13,19.1666667 L3,19.1666667 C1.61928813,19.1666667 0.5,18.0473785 0.5,16.6666667 L0.5,5 C0.5,3.61928813 1.61928813,2.5 3,2.5 L3.83333333,2.5 C3.83333333,1.57952542 4.57952542,0.833333333 5.5,0.833333333 L10.5,0.833333333 C11.4204746,0.833333333 12.1666667,1.57952542 12.1666667,2.5 Z M3.83333333,4.16666667 L3,4.16666667 C2.53976271,4.16666667 2.16666667,4.53976271 2.16666667,5 L2.16666667,16.6666667 C2.16666667,17.126904 2.53976271,17.5 3,17.5 L13,17.5 C13.4602373,17.5 13.8333333,17.126904 13.8333333,16.6666667 L13.8333333,5 C13.8333333,4.53976271 13.4602373,4.16666667 13,4.16666667 L12.1666667,4.16666667 C12.1666667,5.08714125 11.4204746,5.83333333 10.5,5.83333333 L5.5,5.83333333 C4.57952542,5.83333333 3.83333333,5.08714125 3.83333333,4.16666667 Z M5.5,2.5 L5.5,4.16666667 L10.5,4.16666667 L10.5,2.5 L5.5,2.5 Z"/></defs><g id="Page-1" fill="none" fill-rule="evenodd" stroke="none" stroke-width="1"><g id="18-new-file-manager-light" transform="translate(-537.000000, -25.000000)"><g id="menu-head-footer" transform="translate(-1.000000, 0.000000)"><g id="menu-bar" transform="translate(1.000000, 0.000000)"><g id="tools" transform="translate(99.000000, 18.000000)"><g id="paste"><g transform="translate(429.000000, 0.000000) translate(9.000000, 7.000000)"><mask id="mask-2" fill="#fff"><use xlink:href="#path-1"/></mask><use id="Combined-Shape" fill="#8591B0" fill-rule="nonzero" xlink:href="#path-1"/></g></g></g></g></g></g></g></svg>