<svg xmlns="http://www.w3.org/2000/svg" xmlns:xlink="http://www.w3.org/1999/xlink" width="22" height="19" version="1.1" viewBox="0 0 22 19"><title>rename</title><desc>Created with Sketch.</desc><g id="Page-1" fill="none" fill-rule="evenodd" stroke="none" stroke-width="1"><g id="18-new-file-manager-light" stroke="#8591B0" stroke-width="2" transform="translate(-658.000000, -26.000000)"><g id="menu-head-footer" transform="translate(-1.000000, 0.000000)"><g id="menu-bar" transform="translate(1.000000, 0.000000)"><g id="tools" transform="translate(99.000000, 18.000000)"><g id="rename"><g transform="translate(553.000000, 0.000000) translate(7.000000, 9.000000)"><polyline id="Stroke-1" points="15.913 12.064 19.881 12.064 19.881 4.126 15.913 4.126"/><polyline id="Stroke-2" points="9.048 4.127 .119 4.127 .119 12.064 9.048 12.064"/><path id="Stroke-4" stroke-linejoin="round" d="M16.9842857,0.159059526 L15.0004405,0.159059526 C13.9094595,0.159059526 13.0165952,1.05192381 13.0165952,2.14290476 L13.0165952,14.0477619 C13.0165952,15.1387429 13.9094595,16.0316071 15.0004405,16.0316071 L16.9842857,16.0316071"/><path id="Stroke-5" stroke-linejoin="round" d="M9.04771429,16.0319048 L11.0315595,16.0319048 C12.1225405,16.0319048 13.0154048,15.1390405 13.0154048,14.0480595 L13.0163373,2.14320238 C13.0163373,1.05222143 12.123473,0.159357148 11.0324921,0.159357148 L9.04864683,0.159357148"/></g></g></g></g></g></g></g></svg>