<svg xmlns="http://www.w3.org/2000/svg" xmlns:xlink="http://www.w3.org/1999/xlink" width="18" height="18" version="1.1" viewBox="0 0 18 18"><title>resize</title><desc>Created with Sketch.</desc><g id="Page-1" fill="none" fill-rule="evenodd" stroke="none" stroke-width="1"><g id="18-new-file-manager-light" fill="#8591B0" transform="translate(-728.000000, -26.000000)"><g id="menu-head-footer" transform="translate(-1.000000, 0.000000)"><g id="menu-bar" transform="translate(1.000000, 0.000000)"><g id="tools" transform="translate(99.000000, 18.000000)"><g id="resize"><g transform="translate(621.000000, 0.000000) translate(8.000000, 8.000000)"><polygon id="Fill-1" points="10.531 .17 16.072 .164 17.906 .16 17.908 1.995 17.914 7.536 16.082 7.539 16.076 3.351 10.726 8.463 9.46 7.137 14.834 1.999 10.533 2.004"/><polygon id="Fill-2" points="7.469 17.83 1.928 17.836 .093 17.84 .092 16.004 .092 16.005 .085 10.464 1.919 10.462 1.925 14.648 7.274 9.537 8.541 10.863 3.166 16 7.467 15.996"/></g></g></g></g></g></g></g></svg>