<svg xmlns="http://www.w3.org/2000/svg" xmlns:xlink="http://www.w3.org/1999/xlink" width="22" height="13" version="1.1" viewBox="0 0 22 13"><title>sort</title><desc>Created with Sketch.</desc><g id="Page-1" fill="none" fill-rule="evenodd" stroke="none" stroke-width="1"><g id="18-new-file-manager-light" fill="#8591B0" transform="translate(-885.000000, -28.000000)"><g id="menu-head-footer" transform="translate(-1.000000, 0.000000)"><g id="menu-bar" transform="translate(1.000000, 0.000000)"><g id="tools" transform="translate(99.000000, 18.000000)"><g id="sort"><path d="M29,18.99182 L24.99952,23 L20.99992,18.99182 L24.00006,18.99182 L24.00006,10.99196 L25.999816,10.99196 L25.999816,18.99182 L29,18.99182 Z M7,10.99196 L21.00014,10.99196 L21.00014,12.991716 L7,12.991716 L7,10.99196 Z M7,15.9919 L19.00034,15.9919 L19.00034,17.991656 L7,17.9925162 L7,15.9919 Z M7,20.99184 L16.0002,20.99184 L16.0002,22.991596 L7,22.991596 L7,20.992698 L7,20.99184 Z" transform="translate(779.000000, 0.000000)"/></g></g></g></g></g></g></svg>