<svg xmlns="http://www.w3.org/2000/svg" xmlns:xlink="http://www.w3.org/1999/xlink" width="18" height="15" version="1.1" viewBox="0 0 18 15"><title>Page 1</title><desc>Created with Sketch.</desc><g id="Page-1" fill="none" fill-rule="evenodd" stroke="none" stroke-width="1"><g id="18-new-file-manager-light" fill="#8591B0" transform="translate(-853.000000, -28.000000)"><g id="menu-head-footer" transform="translate(-1.000000, 0.000000)"><g id="menu-bar" transform="translate(1.000000, 0.000000)"><g id="tools" transform="translate(99.000000, 18.000000)"><g id="view" transform="translate(745.000000, 0.000000)"><path id="Page-1" d="M14.1988335,16.3986714 L26.3299999,16.3986714 L26.3299999,18.1321497 L14.1988335,18.1321497 L14.1988335,16.3986714 Z M14.1988335,10.33392 L26.3299999,10.33392 L26.3299999,12.0665873 L14.1988335,12.0665873 L14.1988335,10.33392 Z M14.1988335,22.4642546 L26.3299999,22.4642546 L26.3299999,24.1969219 L14.1988335,24.1969219 L14.1988335,22.4642546 Z M9,16.3986714 L11.5994166,16.3986714 L11.5994166,18.1321497 L9,18.1321497 L9,16.3986714 Z M9,10.33392 L11.5994166,10.33392 L11.5994166,12.0665873 L9,12.0665873 L9,10.33392 Z M9,22.4642546 L11.5994166,22.4642546 L11.5994166,24.1969219 L9,24.1969219 L9,22.4642546 Z"/></g></g></g></g></g></g></svg>